<svg width="107" height="108" viewBox="0 0 107 108" fill="none" xmlns="http://www.w3.org/2000/svg">
<path d="M107 54.1826C107 83.7299 83.0472 107.683 53.5 107.683C23.9528 107.683 0 83.7299 0 54.1826C0 24.6354 23.9528 0.682648 53.5 0.682648C83.0472 0.682648 107 24.6354 107 54.1826Z" fill="#3D3D89"/>
<path d="M30.7796 29.7729L41.62 68.141C42.9087 72.7024 45.0631 75.8035 48.0829 77.4442C51.1605 79.0686 54.8357 79.2772 59.1084 78.07C63.4389 76.8465 66.4616 74.7455 68.1763 71.7671C69.9489 68.7723 70.1907 64.9942 68.902 60.4328L58.0616 22.0648L67.9351 19.2752L78.7265 57.47C80.1132 62.3778 80.2196 66.8369 79.0457 70.8471C77.8718 74.8574 75.7315 78.2054 72.6247 80.8913C69.518 83.5772 65.7993 85.5319 61.4689 86.7554C57.1384 87.979 52.9467 88.2592 48.8937 87.5962C44.8985 86.9169 41.3803 85.1675 38.3392 82.3482C35.2981 79.5288 33.0842 75.6652 31.6976 70.7574L20.9061 32.5626L30.7796 29.7729Z" fill="white"/>
</svg>
